G04 #@! TF.GenerationSoftware,KiCad,Pcbnew,5.0.0-fee4fd1~66~ubuntu18.04.1*
G04 #@! TF.CreationDate,2018-10-21T22:10:04-02:30*
G04 #@! TF.ProjectId,mpuBoard,6D7075426F6172642E6B696361645F70,rev?*
G04 #@! TF.SameCoordinates,Original*
G04 #@! TF.FileFunction,Legend,Bot*
G04 #@! TF.FilePolarity,Positive*
%FSLAX46Y46*%
G04 Gerber Fmt 4.6, Leading zero omitted, Abs format (unit mm)*
G04 Created by KiCad (PCBNEW 5.0.0-fee4fd1~66~ubuntu18.04.1) date Sun Oct 21 22:10:04 2018*
%MOMM*%
%LPD*%
G01*
G04 APERTURE LIST*
%ADD10C,0.120000*%
%ADD11C,0.100000*%
%ADD12C,0.150000*%
G04 APERTURE END LIST*
D10*
G04 #@! TO.C,U4*
X108228000Y-87066000D02*
X108228000Y-105466000D01*
D11*
X95988000Y-105466000D02*
X95988000Y-86066000D01*
D12*
X94560380Y-95504095D02*
X95369904Y-95504095D01*
X95465142Y-95551714D01*
X95512761Y-95599333D01*
X95560380Y-95694571D01*
X95560380Y-95885047D01*
X95512761Y-95980285D01*
X95465142Y-96027904D01*
X95369904Y-96075523D01*
X94560380Y-96075523D01*
X94893714Y-96980285D02*
X95560380Y-96980285D01*
X94512761Y-96742190D02*
X95227047Y-96504095D01*
X95227047Y-97123142D01*
G04 #@! TO.C,C13*
X136856742Y-100906342D02*
X136904361Y-100858723D01*
X136951980Y-100715866D01*
X136951980Y-100620628D01*
X136904361Y-100477771D01*
X136809123Y-100382533D01*
X136713885Y-100334914D01*
X136523409Y-100287295D01*
X136380552Y-100287295D01*
X136190076Y-100334914D01*
X136094838Y-100382533D01*
X135999600Y-100477771D01*
X135951980Y-100620628D01*
X135951980Y-100715866D01*
X135999600Y-100858723D01*
X136047219Y-100906342D01*
X136951980Y-101858723D02*
X136951980Y-101287295D01*
X136951980Y-101573009D02*
X135951980Y-101573009D01*
X136094838Y-101477771D01*
X136190076Y-101382533D01*
X136237695Y-101287295D01*
X135951980Y-102192057D02*
X135951980Y-102811104D01*
X136332933Y-102477771D01*
X136332933Y-102620628D01*
X136380552Y-102715866D01*
X136428171Y-102763485D01*
X136523409Y-102811104D01*
X136761504Y-102811104D01*
X136856742Y-102763485D01*
X136904361Y-102715866D01*
X136951980Y-102620628D01*
X136951980Y-102334914D01*
X136904361Y-102239676D01*
X136856742Y-102192057D01*
G04 #@! TO.C,C14*
X148388342Y-99052142D02*
X148435961Y-99004523D01*
X148483580Y-98861666D01*
X148483580Y-98766428D01*
X148435961Y-98623571D01*
X148340723Y-98528333D01*
X148245485Y-98480714D01*
X148055009Y-98433095D01*
X147912152Y-98433095D01*
X147721676Y-98480714D01*
X147626438Y-98528333D01*
X147531200Y-98623571D01*
X147483580Y-98766428D01*
X147483580Y-98861666D01*
X147531200Y-99004523D01*
X147578819Y-99052142D01*
X148483580Y-100004523D02*
X148483580Y-99433095D01*
X148483580Y-99718809D02*
X147483580Y-99718809D01*
X147626438Y-99623571D01*
X147721676Y-99528333D01*
X147769295Y-99433095D01*
X147816914Y-100861666D02*
X148483580Y-100861666D01*
X147435961Y-100623571D02*
X148150247Y-100385476D01*
X148150247Y-101004523D01*
G04 #@! TO.C,C15*
X144383857Y-92965542D02*
X144431476Y-93013161D01*
X144574333Y-93060780D01*
X144669571Y-93060780D01*
X144812428Y-93013161D01*
X144907666Y-92917923D01*
X144955285Y-92822685D01*
X145002904Y-92632209D01*
X145002904Y-92489352D01*
X144955285Y-92298876D01*
X144907666Y-92203638D01*
X144812428Y-92108400D01*
X144669571Y-92060780D01*
X144574333Y-92060780D01*
X144431476Y-92108400D01*
X144383857Y-92156019D01*
X143431476Y-93060780D02*
X144002904Y-93060780D01*
X143717190Y-93060780D02*
X143717190Y-92060780D01*
X143812428Y-92203638D01*
X143907666Y-92298876D01*
X144002904Y-92346495D01*
X142526714Y-92060780D02*
X143002904Y-92060780D01*
X143050523Y-92536971D01*
X143002904Y-92489352D01*
X142907666Y-92441733D01*
X142669571Y-92441733D01*
X142574333Y-92489352D01*
X142526714Y-92536971D01*
X142479095Y-92632209D01*
X142479095Y-92870304D01*
X142526714Y-92965542D01*
X142574333Y-93013161D01*
X142669571Y-93060780D01*
X142907666Y-93060780D01*
X143002904Y-93013161D01*
X143050523Y-92965542D01*
G04 #@! TO.C,C17*
X141727857Y-97557142D02*
X141775476Y-97604761D01*
X141918333Y-97652380D01*
X142013571Y-97652380D01*
X142156428Y-97604761D01*
X142251666Y-97509523D01*
X142299285Y-97414285D01*
X142346904Y-97223809D01*
X142346904Y-97080952D01*
X142299285Y-96890476D01*
X142251666Y-96795238D01*
X142156428Y-96700000D01*
X142013571Y-96652380D01*
X141918333Y-96652380D01*
X141775476Y-96700000D01*
X141727857Y-96747619D01*
X140775476Y-97652380D02*
X141346904Y-97652380D01*
X141061190Y-97652380D02*
X141061190Y-96652380D01*
X141156428Y-96795238D01*
X141251666Y-96890476D01*
X141346904Y-96938095D01*
X140442142Y-96652380D02*
X139775476Y-96652380D01*
X140204047Y-97652380D01*
G04 #@! TO.C,C18*
X144406857Y-91619342D02*
X144454476Y-91666961D01*
X144597333Y-91714580D01*
X144692571Y-91714580D01*
X144835428Y-91666961D01*
X144930666Y-91571723D01*
X144978285Y-91476485D01*
X145025904Y-91286009D01*
X145025904Y-91143152D01*
X144978285Y-90952676D01*
X144930666Y-90857438D01*
X144835428Y-90762200D01*
X144692571Y-90714580D01*
X144597333Y-90714580D01*
X144454476Y-90762200D01*
X144406857Y-90809819D01*
X143454476Y-91714580D02*
X144025904Y-91714580D01*
X143740190Y-91714580D02*
X143740190Y-90714580D01*
X143835428Y-90857438D01*
X143930666Y-90952676D01*
X144025904Y-91000295D01*
X142883047Y-91143152D02*
X142978285Y-91095533D01*
X143025904Y-91047914D01*
X143073523Y-90952676D01*
X143073523Y-90905057D01*
X143025904Y-90809819D01*
X142978285Y-90762200D01*
X142883047Y-90714580D01*
X142692571Y-90714580D01*
X142597333Y-90762200D01*
X142549714Y-90809819D01*
X142502095Y-90905057D01*
X142502095Y-90952676D01*
X142549714Y-91047914D01*
X142597333Y-91095533D01*
X142692571Y-91143152D01*
X142883047Y-91143152D01*
X142978285Y-91190771D01*
X143025904Y-91238390D01*
X143073523Y-91333628D01*
X143073523Y-91524104D01*
X143025904Y-91619342D01*
X142978285Y-91666961D01*
X142883047Y-91714580D01*
X142692571Y-91714580D01*
X142597333Y-91666961D01*
X142549714Y-91619342D01*
X142502095Y-91524104D01*
X142502095Y-91333628D01*
X142549714Y-91238390D01*
X142597333Y-91190771D01*
X142692571Y-91143152D01*
G04 #@! TO.C,C19*
X143816342Y-96893142D02*
X143863961Y-96845523D01*
X143911580Y-96702666D01*
X143911580Y-96607428D01*
X143863961Y-96464571D01*
X143768723Y-96369333D01*
X143673485Y-96321714D01*
X143483009Y-96274095D01*
X143340152Y-96274095D01*
X143149676Y-96321714D01*
X143054438Y-96369333D01*
X142959200Y-96464571D01*
X142911580Y-96607428D01*
X142911580Y-96702666D01*
X142959200Y-96845523D01*
X143006819Y-96893142D01*
X143911580Y-97845523D02*
X143911580Y-97274095D01*
X143911580Y-97559809D02*
X142911580Y-97559809D01*
X143054438Y-97464571D01*
X143149676Y-97369333D01*
X143197295Y-97274095D01*
X143911580Y-98321714D02*
X143911580Y-98512190D01*
X143863961Y-98607428D01*
X143816342Y-98655047D01*
X143673485Y-98750285D01*
X143483009Y-98797904D01*
X143102057Y-98797904D01*
X143006819Y-98750285D01*
X142959200Y-98702666D01*
X142911580Y-98607428D01*
X142911580Y-98416952D01*
X142959200Y-98321714D01*
X143006819Y-98274095D01*
X143102057Y-98226476D01*
X143340152Y-98226476D01*
X143435390Y-98274095D01*
X143483009Y-98321714D01*
X143530628Y-98416952D01*
X143530628Y-98607428D01*
X143483009Y-98702666D01*
X143435390Y-98750285D01*
X143340152Y-98797904D01*
G04 #@! TO.C,C20*
X148439142Y-95318342D02*
X148486761Y-95270723D01*
X148534380Y-95127866D01*
X148534380Y-95032628D01*
X148486761Y-94889771D01*
X148391523Y-94794533D01*
X148296285Y-94746914D01*
X148105809Y-94699295D01*
X147962952Y-94699295D01*
X147772476Y-94746914D01*
X147677238Y-94794533D01*
X147582000Y-94889771D01*
X147534380Y-95032628D01*
X147534380Y-95127866D01*
X147582000Y-95270723D01*
X147629619Y-95318342D01*
X147629619Y-95699295D02*
X147582000Y-95746914D01*
X147534380Y-95842152D01*
X147534380Y-96080247D01*
X147582000Y-96175485D01*
X147629619Y-96223104D01*
X147724857Y-96270723D01*
X147820095Y-96270723D01*
X147962952Y-96223104D01*
X148534380Y-95651676D01*
X148534380Y-96270723D01*
X147534380Y-96889771D02*
X147534380Y-96985009D01*
X147582000Y-97080247D01*
X147629619Y-97127866D01*
X147724857Y-97175485D01*
X147915333Y-97223104D01*
X148153428Y-97223104D01*
X148343904Y-97175485D01*
X148439142Y-97127866D01*
X148486761Y-97080247D01*
X148534380Y-96985009D01*
X148534380Y-96889771D01*
X148486761Y-96794533D01*
X148439142Y-96746914D01*
X148343904Y-96699295D01*
X148153428Y-96651676D01*
X147915333Y-96651676D01*
X147724857Y-96699295D01*
X147629619Y-96746914D01*
X147582000Y-96794533D01*
X147534380Y-96889771D01*
G04 #@! TO.C,C21*
X148286742Y-102785942D02*
X148334361Y-102738323D01*
X148381980Y-102595466D01*
X148381980Y-102500228D01*
X148334361Y-102357371D01*
X148239123Y-102262133D01*
X148143885Y-102214514D01*
X147953409Y-102166895D01*
X147810552Y-102166895D01*
X147620076Y-102214514D01*
X147524838Y-102262133D01*
X147429600Y-102357371D01*
X147381980Y-102500228D01*
X147381980Y-102595466D01*
X147429600Y-102738323D01*
X147477219Y-102785942D01*
X147477219Y-103166895D02*
X147429600Y-103214514D01*
X147381980Y-103309752D01*
X147381980Y-103547847D01*
X147429600Y-103643085D01*
X147477219Y-103690704D01*
X147572457Y-103738323D01*
X147667695Y-103738323D01*
X147810552Y-103690704D01*
X148381980Y-103119276D01*
X148381980Y-103738323D01*
X148381980Y-104690704D02*
X148381980Y-104119276D01*
X148381980Y-104404990D02*
X147381980Y-104404990D01*
X147524838Y-104309752D01*
X147620076Y-104214514D01*
X147667695Y-104119276D01*
G04 #@! TO.C,C23*
X138152142Y-100804742D02*
X138199761Y-100757123D01*
X138247380Y-100614266D01*
X138247380Y-100519028D01*
X138199761Y-100376171D01*
X138104523Y-100280933D01*
X138009285Y-100233314D01*
X137818809Y-100185695D01*
X137675952Y-100185695D01*
X137485476Y-100233314D01*
X137390238Y-100280933D01*
X137295000Y-100376171D01*
X137247380Y-100519028D01*
X137247380Y-100614266D01*
X137295000Y-100757123D01*
X137342619Y-100804742D01*
X137342619Y-101185695D02*
X137295000Y-101233314D01*
X137247380Y-101328552D01*
X137247380Y-101566647D01*
X137295000Y-101661885D01*
X137342619Y-101709504D01*
X137437857Y-101757123D01*
X137533095Y-101757123D01*
X137675952Y-101709504D01*
X138247380Y-101138076D01*
X138247380Y-101757123D01*
X137247380Y-102090457D02*
X137247380Y-102709504D01*
X137628333Y-102376171D01*
X137628333Y-102519028D01*
X137675952Y-102614266D01*
X137723571Y-102661885D01*
X137818809Y-102709504D01*
X138056904Y-102709504D01*
X138152142Y-102661885D01*
X138199761Y-102614266D01*
X138247380Y-102519028D01*
X138247380Y-102233314D01*
X138199761Y-102138076D01*
X138152142Y-102090457D01*
G04 #@! TO.C,C24*
X142527257Y-108383342D02*
X142574876Y-108430961D01*
X142717733Y-108478580D01*
X142812971Y-108478580D01*
X142955828Y-108430961D01*
X143051066Y-108335723D01*
X143098685Y-108240485D01*
X143146304Y-108050009D01*
X143146304Y-107907152D01*
X143098685Y-107716676D01*
X143051066Y-107621438D01*
X142955828Y-107526200D01*
X142812971Y-107478580D01*
X142717733Y-107478580D01*
X142574876Y-107526200D01*
X142527257Y-107573819D01*
X142146304Y-107573819D02*
X142098685Y-107526200D01*
X142003447Y-107478580D01*
X141765352Y-107478580D01*
X141670114Y-107526200D01*
X141622495Y-107573819D01*
X141574876Y-107669057D01*
X141574876Y-107764295D01*
X141622495Y-107907152D01*
X142193923Y-108478580D01*
X141574876Y-108478580D01*
X140717733Y-107811914D02*
X140717733Y-108478580D01*
X140955828Y-107430961D02*
X141193923Y-108145247D01*
X140574876Y-108145247D01*
G04 #@! TO.C,C25*
X145473657Y-106808542D02*
X145521276Y-106856161D01*
X145664133Y-106903780D01*
X145759371Y-106903780D01*
X145902228Y-106856161D01*
X145997466Y-106760923D01*
X146045085Y-106665685D01*
X146092704Y-106475209D01*
X146092704Y-106332352D01*
X146045085Y-106141876D01*
X145997466Y-106046638D01*
X145902228Y-105951400D01*
X145759371Y-105903780D01*
X145664133Y-105903780D01*
X145521276Y-105951400D01*
X145473657Y-105999019D01*
X145092704Y-105999019D02*
X145045085Y-105951400D01*
X144949847Y-105903780D01*
X144711752Y-105903780D01*
X144616514Y-105951400D01*
X144568895Y-105999019D01*
X144521276Y-106094257D01*
X144521276Y-106189495D01*
X144568895Y-106332352D01*
X145140323Y-106903780D01*
X144521276Y-106903780D01*
X143616514Y-105903780D02*
X144092704Y-105903780D01*
X144140323Y-106379971D01*
X144092704Y-106332352D01*
X143997466Y-106284733D01*
X143759371Y-106284733D01*
X143664133Y-106332352D01*
X143616514Y-106379971D01*
X143568895Y-106475209D01*
X143568895Y-106713304D01*
X143616514Y-106808542D01*
X143664133Y-106856161D01*
X143759371Y-106903780D01*
X143997466Y-106903780D01*
X144092704Y-106856161D01*
X144140323Y-106808542D01*
G04 #@! TO.C,C30*
X102977857Y-83719942D02*
X103025476Y-83767561D01*
X103168333Y-83815180D01*
X103263571Y-83815180D01*
X103406428Y-83767561D01*
X103501666Y-83672323D01*
X103549285Y-83577085D01*
X103596904Y-83386609D01*
X103596904Y-83243752D01*
X103549285Y-83053276D01*
X103501666Y-82958038D01*
X103406428Y-82862800D01*
X103263571Y-82815180D01*
X103168333Y-82815180D01*
X103025476Y-82862800D01*
X102977857Y-82910419D01*
X102644523Y-82815180D02*
X102025476Y-82815180D01*
X102358809Y-83196133D01*
X102215952Y-83196133D01*
X102120714Y-83243752D01*
X102073095Y-83291371D01*
X102025476Y-83386609D01*
X102025476Y-83624704D01*
X102073095Y-83719942D01*
X102120714Y-83767561D01*
X102215952Y-83815180D01*
X102501666Y-83815180D01*
X102596904Y-83767561D01*
X102644523Y-83719942D01*
X101406428Y-82815180D02*
X101311190Y-82815180D01*
X101215952Y-82862800D01*
X101168333Y-82910419D01*
X101120714Y-83005657D01*
X101073095Y-83196133D01*
X101073095Y-83434228D01*
X101120714Y-83624704D01*
X101168333Y-83719942D01*
X101215952Y-83767561D01*
X101311190Y-83815180D01*
X101406428Y-83815180D01*
X101501666Y-83767561D01*
X101549285Y-83719942D01*
X101596904Y-83624704D01*
X101644523Y-83434228D01*
X101644523Y-83196133D01*
X101596904Y-83005657D01*
X101549285Y-82910419D01*
X101501666Y-82862800D01*
X101406428Y-82815180D01*
G04 #@! TO.C,C31*
X103677857Y-109526342D02*
X103725476Y-109573961D01*
X103868333Y-109621580D01*
X103963571Y-109621580D01*
X104106428Y-109573961D01*
X104201666Y-109478723D01*
X104249285Y-109383485D01*
X104296904Y-109193009D01*
X104296904Y-109050152D01*
X104249285Y-108859676D01*
X104201666Y-108764438D01*
X104106428Y-108669200D01*
X103963571Y-108621580D01*
X103868333Y-108621580D01*
X103725476Y-108669200D01*
X103677857Y-108716819D01*
X103344523Y-108621580D02*
X102725476Y-108621580D01*
X103058809Y-109002533D01*
X102915952Y-109002533D01*
X102820714Y-109050152D01*
X102773095Y-109097771D01*
X102725476Y-109193009D01*
X102725476Y-109431104D01*
X102773095Y-109526342D01*
X102820714Y-109573961D01*
X102915952Y-109621580D01*
X103201666Y-109621580D01*
X103296904Y-109573961D01*
X103344523Y-109526342D01*
X101773095Y-109621580D02*
X102344523Y-109621580D01*
X102058809Y-109621580D02*
X102058809Y-108621580D01*
X102154047Y-108764438D01*
X102249285Y-108859676D01*
X102344523Y-108907295D01*
G04 #@! TO.C,C32*
X116944345Y-100049791D02*
X116944345Y-100117135D01*
X117011689Y-100251822D01*
X117079032Y-100319165D01*
X117213719Y-100386509D01*
X117348406Y-100386509D01*
X117449421Y-100352837D01*
X117617780Y-100251822D01*
X117718795Y-100150807D01*
X117819811Y-99982448D01*
X117853482Y-99881433D01*
X117853482Y-99746746D01*
X117786139Y-99612059D01*
X117718795Y-99544715D01*
X117584108Y-99477372D01*
X117516765Y-99477372D01*
X117348406Y-99174326D02*
X116910673Y-98736593D01*
X116877002Y-99241669D01*
X116775986Y-99140654D01*
X116674971Y-99106982D01*
X116607627Y-99106982D01*
X116506612Y-99140654D01*
X116338253Y-99309013D01*
X116304582Y-99410028D01*
X116304582Y-99477372D01*
X116338253Y-99578387D01*
X116540284Y-99780417D01*
X116641299Y-99814089D01*
X116708643Y-99814089D01*
X116573956Y-98534562D02*
X116573956Y-98467219D01*
X116540284Y-98366204D01*
X116371925Y-98197845D01*
X116270910Y-98164173D01*
X116203566Y-98164173D01*
X116102551Y-98197845D01*
X116035208Y-98265188D01*
X115967864Y-98399875D01*
X115967864Y-99207997D01*
X115530131Y-98770265D01*
G04 #@! TO.C,C33*
X114522857Y-101197142D02*
X114570476Y-101244761D01*
X114713333Y-101292380D01*
X114808571Y-101292380D01*
X114951428Y-101244761D01*
X115046666Y-101149523D01*
X115094285Y-101054285D01*
X115141904Y-100863809D01*
X115141904Y-100720952D01*
X115094285Y-100530476D01*
X115046666Y-100435238D01*
X114951428Y-100340000D01*
X114808571Y-100292380D01*
X114713333Y-100292380D01*
X114570476Y-100340000D01*
X114522857Y-100387619D01*
X114189523Y-100292380D02*
X113570476Y-100292380D01*
X113903809Y-100673333D01*
X113760952Y-100673333D01*
X113665714Y-100720952D01*
X113618095Y-100768571D01*
X113570476Y-100863809D01*
X113570476Y-101101904D01*
X113618095Y-101197142D01*
X113665714Y-101244761D01*
X113760952Y-101292380D01*
X114046666Y-101292380D01*
X114141904Y-101244761D01*
X114189523Y-101197142D01*
X113237142Y-100292380D02*
X112618095Y-100292380D01*
X112951428Y-100673333D01*
X112808571Y-100673333D01*
X112713333Y-100720952D01*
X112665714Y-100768571D01*
X112618095Y-100863809D01*
X112618095Y-101101904D01*
X112665714Y-101197142D01*
X112713333Y-101244761D01*
X112808571Y-101292380D01*
X113094285Y-101292380D01*
X113189523Y-101244761D01*
X113237142Y-101197142D01*
G04 #@! TO.C,R6*
X142381266Y-106878380D02*
X142714600Y-106402190D01*
X142952695Y-106878380D02*
X142952695Y-105878380D01*
X142571742Y-105878380D01*
X142476504Y-105926000D01*
X142428885Y-105973619D01*
X142381266Y-106068857D01*
X142381266Y-106211714D01*
X142428885Y-106306952D01*
X142476504Y-106354571D01*
X142571742Y-106402190D01*
X142952695Y-106402190D01*
X141524123Y-105878380D02*
X141714600Y-105878380D01*
X141809838Y-105926000D01*
X141857457Y-105973619D01*
X141952695Y-106116476D01*
X142000314Y-106306952D01*
X142000314Y-106687904D01*
X141952695Y-106783142D01*
X141905076Y-106830761D01*
X141809838Y-106878380D01*
X141619361Y-106878380D01*
X141524123Y-106830761D01*
X141476504Y-106783142D01*
X141428885Y-106687904D01*
X141428885Y-106449809D01*
X141476504Y-106354571D01*
X141524123Y-106306952D01*
X141619361Y-106259333D01*
X141809838Y-106259333D01*
X141905076Y-106306952D01*
X141952695Y-106354571D01*
X142000314Y-106449809D01*
G04 #@! TO.C,R7*
X145403866Y-108453180D02*
X145737200Y-107976990D01*
X145975295Y-108453180D02*
X145975295Y-107453180D01*
X145594342Y-107453180D01*
X145499104Y-107500800D01*
X145451485Y-107548419D01*
X145403866Y-107643657D01*
X145403866Y-107786514D01*
X145451485Y-107881752D01*
X145499104Y-107929371D01*
X145594342Y-107976990D01*
X145975295Y-107976990D01*
X145070533Y-107453180D02*
X144403866Y-107453180D01*
X144832438Y-108453180D01*
G04 #@! TO.C,R8*
X98682380Y-84163333D02*
X98206190Y-83830000D01*
X98682380Y-83591904D02*
X97682380Y-83591904D01*
X97682380Y-83972857D01*
X97730000Y-84068095D01*
X97777619Y-84115714D01*
X97872857Y-84163333D01*
X98015714Y-84163333D01*
X98110952Y-84115714D01*
X98158571Y-84068095D01*
X98206190Y-83972857D01*
X98206190Y-83591904D01*
X98110952Y-84734761D02*
X98063333Y-84639523D01*
X98015714Y-84591904D01*
X97920476Y-84544285D01*
X97872857Y-84544285D01*
X97777619Y-84591904D01*
X97730000Y-84639523D01*
X97682380Y-84734761D01*
X97682380Y-84925238D01*
X97730000Y-85020476D01*
X97777619Y-85068095D01*
X97872857Y-85115714D01*
X97920476Y-85115714D01*
X98015714Y-85068095D01*
X98063333Y-85020476D01*
X98110952Y-84925238D01*
X98110952Y-84734761D01*
X98158571Y-84639523D01*
X98206190Y-84591904D01*
X98301428Y-84544285D01*
X98491904Y-84544285D01*
X98587142Y-84591904D01*
X98634761Y-84639523D01*
X98682380Y-84734761D01*
X98682380Y-84925238D01*
X98634761Y-85020476D01*
X98587142Y-85068095D01*
X98491904Y-85115714D01*
X98301428Y-85115714D01*
X98206190Y-85068095D01*
X98158571Y-85020476D01*
X98110952Y-84925238D01*
G04 #@! TO.C,R9*
X107081580Y-84186733D02*
X106605390Y-83853400D01*
X107081580Y-83615304D02*
X106081580Y-83615304D01*
X106081580Y-83996257D01*
X106129200Y-84091495D01*
X106176819Y-84139114D01*
X106272057Y-84186733D01*
X106414914Y-84186733D01*
X106510152Y-84139114D01*
X106557771Y-84091495D01*
X106605390Y-83996257D01*
X106605390Y-83615304D01*
X107081580Y-84662923D02*
X107081580Y-84853400D01*
X107033961Y-84948638D01*
X106986342Y-84996257D01*
X106843485Y-85091495D01*
X106653009Y-85139114D01*
X106272057Y-85139114D01*
X106176819Y-85091495D01*
X106129200Y-85043876D01*
X106081580Y-84948638D01*
X106081580Y-84758161D01*
X106129200Y-84662923D01*
X106176819Y-84615304D01*
X106272057Y-84567685D01*
X106510152Y-84567685D01*
X106605390Y-84615304D01*
X106653009Y-84662923D01*
X106700628Y-84758161D01*
X106700628Y-84948638D01*
X106653009Y-85043876D01*
X106605390Y-85091495D01*
X106510152Y-85139114D01*
G04 #@! TD*
M02*
