M48
;DRILL file {KiCad 5.0.0-fee4fd1~66~ubuntu18.04.1} date Sun Oct 21 22:10:07 2018
;FORMAT={-:-/ absolute / inch / decimal}
FMAT,2
INCH,TZ
T1C0.0079
T2C0.0098
T3C0.0236
T4C0.0276
T5C0.0472
T6C0.0551
%
G90
G05
M72
T1
X3.05Y-4.222
X3.2567Y-3.5189
X3.3201Y-4.039
X3.35Y-3.525
X3.3632Y-3.4641
X3.425Y-4.025
X3.425Y-4.05
X3.425Y-4.075
X3.45Y-4.025
X3.45Y-4.05
X3.45Y-4.075
X3.475Y-4.025
X3.475Y-4.05
X3.475Y-4.075
X3.576Y-4.098
X3.5969Y-3.7768
X3.5984Y-3.9319
X3.6Y-3.7
X3.6461Y-3.6677
X3.6543Y-3.898
X3.7197Y-3.8227
X3.7492Y-3.7834
X3.79Y-4.23
X3.8583Y-3.8524
X3.88Y-3.74
X3.88Y-3.78
X3.8815Y-3.9465
X3.89Y-3.82
X3.8941Y-4.0933
X3.9Y-3.86
X3.94Y-3.69
X3.9496Y-3.913
X3.9656Y-3.5886
X3.9656Y-3.6102
X3.9656Y-3.6319
X3.9728Y-3.9315
X3.9852Y-3.5886
X3.9862Y-3.6102
X3.9872Y-3.6319
X3.99Y-3.79
X4.0049Y-3.5886
X4.0059Y-3.6093
X4.03Y-4.14
X4.045Y-3.56
X4.0461Y-3.6834
X4.052Y-3.9331
X4.0677Y-3.6906
X4.076Y-3.3409
X4.0886Y-3.9122
X4.0968Y-3.655
X4.1098Y-3.9248
X4.11Y-3.69
X4.11Y-4.25
X4.1248Y-3.9051
X4.1319Y-3.6618
X4.1465Y-3.9118
X4.17Y-3.585
X4.1894Y-3.8811
X4.1913Y-3.6929
X4.21Y-3.95
X4.21Y-3.97
X4.21Y-3.99
X4.2138Y-3.5835
X4.2165Y-3.8575
X4.2252Y-3.6232
X4.23Y-3.95
X4.23Y-3.97
X4.23Y-3.99
X4.245Y-3.595
X4.25Y-3.95
X4.25Y-3.97
X4.25Y-3.99
X4.255Y-3.6358
X4.255Y-3.66
X4.2559Y-3.785
X4.265Y-4.02
X4.2697Y-3.7299
X4.27Y-4.18
X4.2748Y-3.8517
X4.2819Y-3.9929
X4.2823Y-3.6626
X4.2827Y-3.5819
X4.285Y-3.39
X4.2858Y-3.6094
X4.2862Y-3.9228
X4.2866Y-3.6358
X4.2988Y-4.0417
X4.311Y-3.8988
X4.3232Y-3.8579
X4.33Y-4.025
X4.3476Y-4.0878
X4.3476Y-4.1154
X4.3735Y-3.6779
X4.3736Y-3.7417
X4.3748Y-3.7818
X4.3764Y-3.7079
X4.38Y-3.985
X4.3866Y-3.6472
X4.3976Y-3.6803
X4.3988Y-4.0665
X4.4Y-3.7661
X4.4216Y-3.8827
X4.4315Y-4.0051
X4.4417Y-4.0492
X4.4602Y-3.687
X4.4642Y-3.7098
X4.4667Y-3.8708
X4.472Y-3.8406
X4.4768Y-3.7665
X4.4773Y-3.7339
X4.492Y-3.365
X4.505Y-4.19
X4.5318Y-3.9032
X4.535Y-3.49
X4.537Y-3.295
X4.5448Y-4.0996
X4.5626Y-3.841
X4.5626Y-3.589
X4.5684Y-3.8896
X4.5685Y-4.0126
X4.575Y-4.0609
X4.593Y-3.515
X4.5937Y-3.5886
X4.6031Y-4.0768
X4.61Y-4.2256
X4.6196Y-3.9548
X4.6256Y-3.589
X4.6318Y-3.9917
X4.6461Y-3.9268
X4.65Y-3.393
X4.6546Y-3.9623
X4.657Y-4.0967
X4.657Y-3.9969
X4.6591Y-3.6933
X4.66Y-3.83
X4.6615Y-3.8977
X4.6705Y-3.7327
X4.674Y-3.861
X4.6767Y-3.916
X4.6783Y-4.1337
X4.6796Y-4.0661
X4.685Y-4.
X4.7Y-3.93
X4.7Y-4.17
X4.7073Y-4.0041
X4.71Y-4.08
X4.726Y-3.6025
X4.73Y-3.65
X4.73Y-3.935
X4.7488Y-3.7697
X4.75Y-3.8
X4.75Y-3.85
X4.75Y-4.03
X4.7515Y-3.9984
X4.7524Y-3.968
X4.76Y-4.07
X4.7862Y-3.8071
X4.7988Y-3.8488
X4.7994Y-3.666
X4.808Y-4.328
X4.8094Y-3.7752
X4.815Y-3.4272
X4.82Y-3.88
X4.8246Y-3.6565
X4.835Y-3.935
X4.836Y-4.269
X4.8466Y-4.0975
X4.852Y-3.6051
X4.855Y-3.795
X4.855Y-3.825
X4.86Y-3.76
X4.875Y-3.97
X4.8775Y-3.9984
X4.9006Y-3.9615
X4.9265Y-3.3785
X4.93Y-3.81
X4.9323Y-4.0853
X4.935Y-3.71
X4.9368Y-3.8345
X4.938Y-4.0277
X4.9398Y-3.9048
X4.94Y-3.458
X4.9406Y-3.7531
X4.9409Y-3.6728
X4.9413Y-3.9977
X4.9586Y-3.7939
X4.971Y-3.714
X4.972Y-4.0299
X4.975Y-3.51
X4.9756Y-3.6453
X4.9792Y-3.9611
X4.9911Y-4.1392
X5.0014Y-4.0597
X5.0018Y-3.6521
X5.0033Y-4.0281
X5.0043Y-3.8717
X5.0059Y-3.9695
X5.0071Y-3.5925
X5.0244Y-3.5118
X5.0291Y-3.9519
X5.0308Y-3.8113
X5.0356Y-4.0821
X5.0655Y-4.1081
X5.0668Y-4.1393
X5.0668Y-3.9483
X5.075Y-3.56
X5.0786Y-4.0164
X5.0826Y-4.0476
X5.0912Y-3.9341
X5.0961Y-3.9654
X5.102Y-3.9984
X5.1328Y-4.0408
X5.138Y-3.3383
X5.2028Y-3.3551
X5.2033Y-3.8778
X5.2242Y-3.7597
X5.2437Y-3.5327
X5.3659Y-4.2396
X5.3714Y-3.7412
X5.3714Y-4.0483
X5.3722Y-3.9195
X5.3754Y-3.7912
X5.3824Y-3.9535
X5.3891Y-3.7249
X5.3891Y-3.7664
X5.3936Y-3.9732
X5.3946Y-4.0806
X5.3974Y-3.8042
X5.3985Y-3.9374
X5.4065Y-4.0091
X5.4133Y-3.7355
X5.4186Y-3.975
X5.4196Y-3.9012
X5.4224Y-3.7697
X5.4248Y-3.8303
X5.4358Y-4.0291
X5.4385Y-3.9388
X5.4474Y-3.6914
X5.4496Y-3.9953
X5.4524Y-3.7757
X5.4766Y-3.7848
X5.4781Y-3.7305
X5.4781Y-3.825
X5.5017Y-4.0447
X5.5122Y-3.7112
X5.5164Y-3.744
X5.5165Y-3.8257
X5.5193Y-3.7701
X5.5201Y-3.8583
X5.5372Y-3.9054
X5.5396Y-3.8656
X5.5413Y-3.9512
X5.5436Y-3.7436
X5.5453Y-4.0189
X5.55Y-3.63
X5.5594Y-4.0787
X5.56Y-3.69
X5.5602Y-3.8902
X5.5724Y-3.8028
X5.5783Y-3.9638
X5.5815Y-3.6323
X5.59Y-3.74
X5.6067Y-3.813
X5.61Y-3.76
X5.61Y-3.87
X5.611Y-4.0303
X5.6197Y-3.6909
X5.626Y-3.3035
X5.6378Y-3.8358
X5.6461Y-3.7213
X5.6475Y-3.7922
X5.664Y-3.3985
X5.6729Y-3.9031
X5.679Y-3.856
X5.6802Y-3.8248
X5.7016Y-4.0122
X5.7018Y-3.7116
X5.7067Y-3.9024
X5.7083Y-3.776
X5.73Y-3.87
X5.7484Y-4.1437
X5.77Y-3.87
X5.7795Y-4.0012
X5.7803Y-4.0831
T2
X4.0885Y-3.7696
X4.0885Y-3.8218
X4.1372Y-3.772
X4.1372Y-3.8193
T4
X3.133Y-3.453
X3.133Y-3.5514
X3.133Y-3.6302
X3.133Y-3.7286
X3.1921Y-3.4333
X3.1921Y-3.5121
X3.1921Y-3.5908
X3.1921Y-3.6695
X3.1921Y-3.7483
T5
X2.8232Y-4.0053
X2.8232Y-4.3104
T6
X2.9728Y-4.0112
X2.9728Y-4.3045
T3
X2.8436Y-3.3388G85X2.8121Y-3.3388
G05
X2.8436Y-3.8428G85X2.8121Y-3.8428
G05
X3.1842Y-3.3388G85X3.1409Y-3.3388
G05
X3.1842Y-3.8428G85X3.1409Y-3.8428
G05
T0
M30
